<svg xmlns="http://www.w3.org/2000/svg" viewBox="0 0 256 256"><defs><linearGradient id="bg" x2="1" y2="1"><stop stop-color="#0b4965"/><stop offset="1" stop-color="#07192f"/></linearGradient><linearGradient id="edge" x2="1" y2="1"><stop stop-color="#a8fff5"/><stop offset="1" stop-color="#38bdda"/></linearGradient></defs><rect x="8" y="8" width="240" height="240" rx="54" fill="url(#bg)"/><rect x="17" y="17" width="222" height="222" rx="46" fill="none" stroke="url(#edge)" stroke-width="3"/><path d="M48 80q39-9 80 14q41-23 80-14v108q-39-9-80 14q-41-23-80-14Z" fill="#123e53" stroke="url(#edge)" stroke-width="9" stroke-linejoin="round"/><path d="M128 97v101M68 110q22-1 41 9M68 137q22-1 41 9M68 164q22-1 41 9M147 119q19-10 41-9M147 146q19-10 41-9M147 173q19-10 41-9" fill="none" stroke="#deffff" stroke-width="6" stroke-linecap="round"/><path d="m174 27 7 21 21 7-21 7-7 21-7-21-21-7 21-7Z" fill="#a8fff5"/></svg>
